<svg width="54" height="54" viewBox="0 0 54 54" fill="none" xmlns="http://www.w3.org/2000/svg">
<path d="M27.5865 10.6819C27.4294 10.5317 27.2205 10.4478 27.0032 10.4478C26.7859 10.4478 26.577 10.5317 26.42 10.6819L7.00317 29.2306C6.92071 29.3095 6.85511 29.4043 6.81033 29.5093C6.76556 29.6142 6.74254 29.7272 6.74267 29.8413L6.7395 47.25C6.7395 48.1451 7.09508 49.0035 7.72802 49.6365C8.36095 50.2694 9.2194 50.625 10.1145 50.625H20.25C20.6976 50.625 21.1268 50.4472 21.4433 50.1307C21.7598 49.8143 21.9375 49.385 21.9375 48.9375V34.5937C21.9375 34.37 22.0264 34.1553 22.1847 33.9971C22.3429 33.8389 22.5575 33.75 22.7813 33.75H31.2188C31.4426 33.75 31.6572 33.8389 31.8154 33.9971C31.9737 34.1553 32.0625 34.37 32.0625 34.5937V48.9375C32.0625 49.385 32.2403 49.8143 32.5568 50.1307C32.8733 50.4472 33.3025 50.625 33.75 50.625H43.8814C44.7765 50.625 45.6349 50.2694 46.2679 49.6365C46.9008 49.0035 47.2564 48.1451 47.2564 47.25V29.8413C47.2565 29.7272 47.2335 29.6142 47.1887 29.5093C47.1439 29.4043 47.0783 29.3095 46.9959 29.2306L27.5865 10.6819Z" fill="black"/>
<path d="M51.7757 25.7502L43.8866 18.2029V6.75C43.8866 6.30245 43.7088 5.87322 43.3924 5.55676C43.0759 5.24029 42.6467 5.0625 42.1991 5.0625H37.1366C36.6891 5.0625 36.2599 5.24029 35.9434 5.55676C35.6269 5.87322 35.4491 6.30245 35.4491 6.75V10.125L29.3404 4.28414C28.7687 3.70617 27.9187 3.375 27 3.375C26.0846 3.375 25.2366 3.70617 24.665 4.2852L2.23176 25.7481C1.57574 26.3809 1.49348 27.4219 2.09043 28.1074C2.24033 28.2805 2.42388 28.4212 2.6299 28.521C2.83592 28.6209 3.06011 28.6778 3.28881 28.6882C3.51751 28.6987 3.74595 28.6625 3.96023 28.5819C4.1745 28.5012 4.37012 28.3779 4.5352 28.2192L26.42 7.30687C26.577 7.15667 26.7859 7.07283 27.0032 7.07283C27.2205 7.07283 27.4294 7.15667 27.5864 7.30687L49.4733 28.2192C49.7957 28.5284 50.2276 28.6971 50.6742 28.6884C51.1208 28.6797 51.5457 28.4943 51.8559 28.1728C52.5034 27.502 52.4496 26.3946 51.7757 25.7502Z" fill="black"/>
</svg>
